# xmcd
#
# Track frame offsets: 
#        150
#        22927
#        45401
#        59270
#        76291
#        101857
#        128550
#        149195
#        170075
#        189267
#
# Disc length: 2690 seconds
#
# Revision: 0
# Processed by: cddbd v1.5.2PL0 Copyright (c) Steve Scherf et al.
# Submitted via: ExactAudioCopyFreeDBPlugin 1.0
#
DISCID=840a800a
DTITLE=คาราบาว - Welcome To Thailand
DYEAR=1987
DGENRE=Country
TTITLE0=เวลคัมทูไทแลนด์
TTITLE1=บิ๊กเสี่ยว
TTITLE2=สบายกว่า
TTITLE3=กระถางดอกไม้ให้คุณ
TTITLE4=เทวดาท่าจะแย่
TTITLE5=สังกะสี
TTITLE6=นีออน
TTITLE7=คนหนังเหนียว
TTITLE8=บปบริสุทธิ์
TTITLE9=ถึกควายทุย (ภาค8)
EXTD=
EXTT0=
EXTT1=
EXTT2=
EXTT3=
EXTT4=
EXTT5=
EXTT6=
EXTT7=
EXTT8=
EXTT9=
PLAYORDER=
